<?xml version="1.0" standalone="no"?>
<!DOCTYPE svg PUBLIC "-//W3C//DTD SVG 20010904//EN"
 "http://www.w3.org/TR/2001/REC-SVG-20010904/DTD/svg10.dtd">
<svg version="1.0" xmlns="http://www.w3.org/2000/svg"
 width="400.000000pt" height="200.000000pt" viewBox="0 0 400.000000 200.000000"
 preserveAspectRatio="xMidYMid meet">

<g transform="translate(0.000000,200.000000) scale(0.100000,-0.100000)"
fill="#000000" stroke="none">
<path d="M12 1508 c-17 -17 -17 -999 0 -1016 8 -8 63 -12 180 -12 155 0 168 1
178 19 14 27 14 975 0 1002 -10 18 -23 19 -178 19 -117 0 -172 -4 -180 -12z"/>
<path d="M390 1005 l0 -515 151 0 150 0 -3 513 -3 512 -147 3 -148 3 0 -516z"/>
<path d="M1588 1495 c-10 -22 -9 -29 9 -46 39 -39 98 5 67 49 -21 31 -61 29
-76 -3z"/>
<path d="M2568 1495 c-10 -22 -9 -29 9 -46 39 -39 98 5 67 49 -21 31 -61 29
-76 -3z"/>
<path d="M1354 1465 c-3 -6 -3 -91 -2 -189 l3 -178 100 0 99 0 0 29 c0 27 -1
28 -62 31 l-62 3 0 153 0 154 -36 4 c-21 2 -38 0 -40 -7z"/>
<path d="M1590 1252 l0 -150 36 -4 c21 -2 38 0 40 7 3 6 3 74 2 150 l-3 140
-37 3 -38 3 0 -149z"/>
<path d="M1782 1380 c-101 -62 -96 -220 8 -272 45 -23 96 -23 138 0 34 18 75
70 66 84 -10 16 -71 8 -89 -12 -11 -12 -31 -20 -51 -20 -45 0 -66 32 -62 96 2
37 8 51 30 67 23 17 31 18 57 8 16 -7 32 -19 35 -27 5 -14 67 -20 79 -8 11 12
-24 65 -56 84 -42 26 -112 26 -155 0z"/>
<path d="M2104 1386 c-68 -30 -100 -121 -70 -201 29 -76 109 -112 190 -85 33
11 86 60 86 81 0 17 -71 9 -97 -11 -14 -11 -34 -20 -45 -20 -20 0 -68 42 -68
60 0 6 41 10 111 10 l112 0 -5 50 c-10 102 -115 159 -214 116z m116 -66 c38
-38 27 -50 -50 -50 -77 0 -84 7 -45 45 29 30 68 32 95 5z"/>
<path d="M2367 1393 c-8 -7 -10 -287 -2 -294 2 -3 20 -3 40 -1 l35 4 0 89 c0
99 15 129 65 129 23 0 25 4 25 40 0 46 -10 49 -57 20 -33 -20 -33 -20 -33 0 0
16 -7 20 -33 20 -19 0 -37 -3 -40 -7z"/>
<path d="M2570 1252 l0 -150 36 -4 c21 -2 38 0 40 7 3 6 3 74 2 150 l-3 140
-37 3 -38 3 0 -149z"/>
<path d="M2756 1380 c-41 -26 -65 -76 -66 -133 0 -54 16 -90 55 -127 21 -20
37 -25 80 -25 36 0 59 5 72 18 24 21 35 22 31 3 -3 -16 -3 -16 42 -16 l30 0 0
151 0 150 -37 -3 c-30 -2 -37 -7 -35 -20 4 -23 -4 -23 -35 2 -33 26 -98 26
-137 0z m137 -63 c38 -27 38 -117 0 -144 -26 -20 -74 -15 -100 9 -31 29 -32
99 -3 128 23 23 77 27 103 7z"/>
<path d="M2360 740 l0 -200 35 0 35 0 0 60 c0 33 3 60 8 60 4 -1 27 -28 51
-60 44 -59 46 -60 94 -60 l49 0 -40 48 c-22 26 -49 56 -61 66 -11 11 -21 26
-21 35 1 9 28 45 60 81 l59 65 -47 3 c-44 3 -49 1 -77 -34 -16 -21 -40 -50
-52 -64 l-22 -25 -1 113 0 112 -35 0 -35 0 0 -200z"/>
<path d="M1350 730 l0 -190 99 0 c55 0 111 4 124 9 71 27 90 109 38 161 l-28
29 23 22 c16 15 24 34 24 56 0 79 -44 103 -185 103 l-95 0 0 -190z m190 110
c11 -11 20 -24 20 -30 0 -26 -41 -50 -85 -50 l-45 0 0 50 0 50 45 0 c32 0 51
-6 65 -20z m14 -162 c20 -29 20 -34 -4 -58 -15 -15 -33 -20 -70 -20 l-50 0 0
50 0 50 54 0 c45 0 58 -4 70 -22z"/>
<path d="M2960 884 c0 -27 -5 -37 -20 -41 -14 -4 -20 -14 -20 -33 0 -19 6 -29
20 -33 18 -5 20 -14 20 -97 0 -83 2 -93 25 -115 18 -19 35 -25 70 -25 43 0 45
1 45 30 0 25 -4 30 -23 30 -38 0 -47 19 -47 102 l0 78 35 0 c32 0 35 2 35 30
0 28 -3 30 -35 30 -34 0 -35 1 -35 40 0 39 -1 40 -35 40 -34 0 -35 -2 -35 -36z"/>
<path d="M1780 839 c-123 -36 -148 -205 -41 -276 44 -30 122 -31 169 -3 152
93 44 329 -128 279z m95 -84 c35 -34 35 -96 0 -130 -31 -32 -69 -32 -100 0
-52 51 -18 155 50 155 14 0 37 -11 50 -25z"/>
<path d="M2107 836 c-70 -26 -99 -69 -99 -147 1 -96 55 -149 152 -149 62 0
100 20 131 66 26 40 26 128 -1 171 -34 57 -116 83 -183 59z m95 -70 c45 -34
45 -111 1 -146 -47 -37 -104 -16 -119 45 -19 78 60 146 118 101z"/>
<path d="M2723 839 c-38 -11 -73 -52 -73 -86 0 -35 39 -68 104 -87 31 -9 60
-24 63 -32 15 -38 -59 -51 -88 -15 -21 26 -79 30 -79 5 0 -26 19 -53 50 -69
58 -30 168 -12 184 30 11 30 6 82 -9 95 -9 7 -44 23 -78 34 -47 16 -63 27 -65
43 -5 30 36 38 70 13 31 -23 88 -27 88 -6 0 25 -41 65 -78 76 -43 11 -46 11
-89 -1z"/>
<path d="M3227 836 c-78 -28 -116 -95 -102 -177 14 -81 78 -125 170 -117 83 7
135 64 135 148 0 111 -101 183 -203 146z m97 -77 c56 -44 21 -159 -49 -159
-41 0 -75 41 -75 90 0 76 67 114 124 69z"/>
<path d="M3610 839 c-13 -6 -33 -17 -42 -26 -17 -15 -18 -15 -18 5 0 18 -6 22
-35 22 l-35 0 0 -150 0 -150 35 0 35 0 0 88 c0 99 12 126 60 137 27 6 30 10
30 46 0 21 -1 39 -2 38 -2 0 -14 -5 -28 -10z"/>
<path d="M3766 840 c-104 -32 -138 -174 -62 -258 28 -30 40 -36 89 -40 67 -5
110 9 137 48 11 16 20 31 20 34 0 12 -76 5 -94 -9 -41 -31 -116 -4 -116 40 0
12 19 15 111 15 l112 0 -5 45 c-3 25 -13 56 -22 70 -30 46 -113 73 -170 55z
m96 -77 c36 -32 23 -43 -52 -43 -74 0 -83 7 -50 40 24 24 77 26 102 3z"/>
</g>
</svg>
